<svg data-name="Layer 1" xmlns="http://www.w3.org/2000/svg" viewBox="0 0 568 217"><defs><linearGradient id="a" x1="23" y1="85.5" x2="69" y2="85.5" gradientUnits="userSpaceOnUse"><stop offset="0" stop-color="#46b990"/><stop offset="1" stop-color="#2c9f83"/></linearGradient><linearGradient id="b" x1="50" y1="85.6" x2="98" y2="85.6" gradientUnits="userSpaceOnUse"><stop offset="0" stop-color="#35a887"/><stop offset="1" stop-color="#1b9179"/><stop offset="1" stop-color="#2c9f83"/></linearGradient></defs><path d="M129.33 118.23a10.08 10.08 0 01-7.4-2.63q-2.66-2.64-2.65-8.13v-32h-6.72a1.25 1.25 0 01-.85-.29 1 1 0 01-.33-.79v-1.7l8-.57 1.13-16.73a1.67 1.67 0 01.38-.75 1 1 0 01.79-.33h2.12v17.86h14.76v3.34h-14.77v31.72a9.83 9.83 0 00.49 3.31 6 6 0 001.37 2.28 5.21 5.21 0 002 1.32 7.48 7.48 0 002.54.42 7.71 7.71 0 002.91-.49 12.3 12.3 0 002.12-1.08 13 13 0 001.45-1.08 1.64 1.64 0 01.9-.5 1 1 0 01.75.47l1.22 2a13.12 13.12 0 01-4.53 3.17 14.18 14.18 0 01-5.68 1.18zm18.52-25.99v.89a31.87 31.87 0 001.22 9.26 19.15 19.15 0 003.48 6.7 14.3 14.3 0 005.45 4.06 18.09 18.09 0 007.15 1.37 21.25 21.25 0 006.11-.78 22.54 22.54 0 007.14-3.48 3.2 3.2 0 011.51-.77 1.07 1.07 0 01.94.47l1.22 1.5a12.59 12.59 0 01-3 2.63 20.77 20.77 0 01-4.13 2.1 29.64 29.64 0 01-4.89 1.38 26.53 26.53 0 01-5.24.52 22.25 22.25 0 01-8.74-1.67 18.52 18.52 0 01-6.77-4.86 22.16 22.16 0 01-4.35-7.83 33.77 33.77 0 01-1.52-10.6 28.8 28.8 0 011.43-9.28 21.11 21.11 0 014.14-7.33 19 19 0 016.63-4.82 21.79 21.79 0 018.91-1.7 19.62 19.62 0 017.33 1.36 16.81 16.81 0 015.88 4 18.77 18.77 0 013.92 6.42 24.83 24.83 0 011.43 8.74 2.48 2.48 0 01-.28 1.41 1.1 1.1 0 01-.94.38zm31.21-2.87a20 20 0 00-1.06-6.74 14.34 14.34 0 00-3-5.06 13.22 13.22 0 00-4.58-3.17 15.22 15.22 0 00-5.86-1.1 17.41 17.41 0 00-6.48 1.13 14.13 14.13 0 00-5 3.24 16.37 16.37 0 00-3.36 5.07 23.53 23.53 0 00-1.69 6.63zM224.37 77a5 5 0 01-.45.4.94.94 0 01-.59.17 2.3 2.3 0 01-1.26-.64 16.67 16.67 0 00-2.17-1.38 18.34 18.34 0 00-3.4-1.39 19.14 19.14 0 00-12.13.8 14.58 14.58 0 00-5.29 4.04 18.26 18.26 0 00-3.26 6.49 33.64 33.64 0 000 17.29 18.68 18.68 0 003.27 6.42 13.94 13.94 0 005.12 4 16 16 0 006.68 1.36 17.1 17.1 0 005.66-.8 18.76 18.76 0 003.76-1.73 16.33 16.33 0 002.33-1.74 2.29 2.29 0 011.41-.8 1.15 1.15 0 01.94.47l1.17 1.5a13.66 13.66 0 01-2.72 2.63 18.58 18.58 0 01-3.72 2.12 23.11 23.11 0 01-4.49 1.39 25.82 25.82 0 01-5.05.49 20 20 0 01-8.15-1.62 17.7 17.7 0 01-6.35-4.7 21.85 21.85 0 01-4.13-7.55 35.05 35.05 0 01-.07-19.92 21.71 21.71 0 014.13-7.62 18.82 18.82 0 016.65-5 21.87 21.87 0 019-1.76 21.07 21.07 0 018.09 1.46 19.85 19.85 0 016.15 4zm15.04 1.61a26.4 26.4 0 017.4-6.3 18.58 18.58 0 019.33-2.31 17.65 17.65 0 016.79 1.22 12.53 12.53 0 014.87 3.53 15.65 15.65 0 012.91 5.54 25.17 25.17 0 011 7.34v29.89h-4.51V87.59q0-6.59-3-10.32t-9.2-3.74a16.61 16.61 0 00-8.53 2.33 24 24 0 00-7.07 6.46v35.16h-4.5V49.09h4.51zm49.11.28A26.53 26.53 0 01296 72.4a18.74 18.74 0 019.49-2.4 17.65 17.65 0 016.79 1.22 12.53 12.53 0 014.87 3.53 15.65 15.65 0 012.91 5.54 25.17 25.17 0 011 7.34v29.89h-4.51V87.59q0-6.59-3-10.32t-9.17-3.74a16.61 16.61 0 00-8.53 2.33 24 24 0 00-7.07 6.46v35.16h-4.51V70.71h2.49a1.25 1.25 0 011.36 1.18zM352.11 70a22.4 22.4 0 019 1.72 18.3 18.3 0 016.7 4.86 21.59 21.59 0 014.19 7.55 35.19 35.19 0 010 19.87 21.67 21.67 0 01-4.16 7.57 18.13 18.13 0 01-6.7 4.84 24.81 24.81 0 01-18 0 18.29 18.29 0 01-6.72-4.84 21.39 21.39 0 01-4.18-7.57 35 35 0 010-19.86 21.31 21.31 0 014.18-7.59 18.45 18.45 0 016.72-4.86 22.4 22.4 0 018.97-1.69zm0 44.6a17.31 17.31 0 007.31-1.43 14 14 0 005.22-4.11 18.25 18.25 0 003.12-6.46 35.05 35.05 0 000-17 18.42 18.42 0 00-3.12-6.51 14 14 0 00-5.22-4.16 19.15 19.15 0 00-14.62 0 13.93 13.93 0 00-5.21 4.16 18.46 18.46 0 00-3.15 6.51 34.41 34.41 0 000 17 18.3 18.3 0 003.15 6.46 13.9 13.9 0 005.21 4.11 17.34 17.34 0 007.31 1.39zm23.48 21.25v-6.49h4.32q4.32 0 4.32-4.42V70.52h9.69v54.61a13.76 13.76 0 01-2.59 8.51q-2.58 3.44-8.51 3.43a24.13 24.13 0 01-7.23-1.22zM384.23 52h9.69v10h-9.69zm21.67 62.74q-5.9-6.34-5.9-19.5t5.87-19.51q5.88-6.35 17.63-6.34t17.67 6.34q5.93 6.34 5.92 19.51t-5.92 19.5q-5.93 6.35-17.67 6.35t-17.6-6.35zm28-5.82q3.25-4.19 3.25-13.21v-.94q0-9-3.25-13.21t-10.38-4.18q-7 0-10.3 4.18T410 94.77v.94q0 9 3.24 13.21t10.3 4.18q7.13 0 10.37-4.18zm34.98 10.2a15.35 15.35 0 01-6.34-5.74h-.66l-.94 6.58h-7.71V52h9.68v24.16h.57q4.69-6.76 14.94-6.77 8.74 0 13.82 6.44t5.08 19.41q0 13.16-5.08 19.5t-14.48 6.35a19.86 19.86 0 01-8.88-1.97zM484.53 109q2.82-3.94 2.82-13.16V95q0-9.4-2.82-13.4t-9.49-4q-6.3 0-9.21 4.42t-2.92 13.06v.75q0 8.46 2.92 12.79t9.21 4.32q6.68-.03 9.49-3.94zm21.2 7.86a13 13 0 01-5.31-10.62 13.39 13.39 0 010-1.37 2.52 2.52 0 00.05-.42H510v.85a6.64 6.64 0 003.29 6.06 15.71 15.71 0 008.36 2 15.44 15.44 0 007.57-1.69 5.27 5.27 0 003-4.79 5.17 5.17 0 00-1.69-4 12.32 12.32 0 00-4.13-2.44c-1.63-.6-4-1.3-7.05-2.12a76.61 76.61 0 01-9.22-2.82 15.61 15.61 0 01-6.06-4.23 10.94 10.94 0 01-2.49-7.52 12.11 12.11 0 015.55-10.57q5.54-3.81 14.75-3.81a26.51 26.51 0 0110 1.74 15 15 0 016.66 4.89 11.43 11.43 0 012.3 7l-.1 1.88h-9.49v-.66a6.06 6.06 0 00-2.49-5c-1.66-1.29-4.22-1.93-7.66-1.93s-5.75.58-7.29 1.74a5.05 5.05 0 00-2.3 4.09 4.58 4.58 0 002.82 4.32 43.22 43.22 0 008.93 2.82 76.34 76.34 0 019.68 2.74 16.71 16.71 0 016.49 4.51 11.75 11.75 0 012.72 8.13q0 7.9-5.68 11.66t-15.28 3.76q-10.19.03-15.46-4.2z" fill="#5c5c5c"/><path d="M301 176.36a4.29 4.29 0 01-3.15-1.12 4.69 4.69 0 01-1.13-3.46v-13.6h-2.86a.56.56 0 01-.36-.12.43.43 0 01-.14-.34V157l3.4-.24.48-7.12a.81.81 0 01.16-.32.44.44 0 01.34-.14h.9v7.6h6.28v1.42h-6.28v13.5a4.19 4.19 0 00.21 1.41 2.64 2.64 0 00.58 1 2.25 2.25 0 00.87.56 3.22 3.22 0 001.08.18 3.28 3.28 0 001.24-.21 4.71 4.71 0 00.9-.46 4.54 4.54 0 00.62-.46.69.69 0 01.38-.21.43.43 0 01.32.2l.52.84a5.48 5.48 0 01-1.93 1.35 6 6 0 01-2.43.46zm9.06-16.86a11.25 11.25 0 013.15-2.68 8 8 0 014-1 7.57 7.57 0 012.89.52 5.28 5.28 0 012.07 1.5 6.64 6.64 0 011.24 2.36 10.71 10.71 0 01.42 3.12V176h-1.92v-12.68a6.79 6.79 0 00-1.28-4.39 4.7 4.7 0 00-3.9-1.59 7.08 7.08 0 00-3.63 1 10.38 10.38 0 00-3 2.75v15h-1.92v-29.1h1.92zm19.64 5.8v.38a13.68 13.68 0 00.52 3.94 8 8 0 001.48 2.85 6.05 6.05 0 002.3 1.73 7.63 7.63 0 003 .58 9.1 9.1 0 004.45-1.07 9.46 9.46 0 001.19-.74 1.39 1.39 0 01.64-.33.45.45 0 01.4.2l.52.64a5.22 5.22 0 01-1.2 1.12 8.29 8.29 0 01-1.76.89 11.72 11.72 0 01-2.08.59 11.17 11.17 0 01-2.23.22 9.35 9.35 0 01-3.72-.71 7.81 7.81 0 01-2.88-2.07 9.41 9.41 0 01-1.85-3.33 14.43 14.43 0 01-.65-4.51 12.53 12.53 0 01.61-4 9.34 9.34 0 011.76-3.12 8.21 8.21 0 012.82-2.05 9.35 9.35 0 013.79-.74 8.41 8.41 0 013.12.58 7.05 7.05 0 012.5 1.69 7.8 7.8 0 011.67 2.73 10.44 10.44 0 01.61 3.72 1 1 0 01-.12.6.46.46 0 01-.4.16zm13.3-1.22a8.6 8.6 0 00-.45-2.87 6.13 6.13 0 00-1.27-2.15 5.59 5.59 0 00-1.95-1.35 6.46 6.46 0 00-2.49-.47 7.54 7.54 0 00-2.76.48 6.13 6.13 0 00-2.08 1.38 7 7 0 00-1.43 2.16 10.05 10.05 0 00-.72 2.82zm19.94 12.28a4.29 4.29 0 01-3.15-1.12 4.69 4.69 0 01-1.13-3.46v-13.6h-2.86a.56.56 0 01-.36-.12.43.43 0 01-.14-.34V157l3.4-.24.48-7.12a.81.81 0 01.16-.32.44.44 0 01.34-.14h.9v7.6h6.28v1.42h-6.28v13.5a4.19 4.19 0 00.21 1.41 2.64 2.64 0 00.58 1 2.25 2.25 0 00.87.56 3.22 3.22 0 001.08.18 3.28 3.28 0 001.24-.21 4.71 4.71 0 00.9-.46 4.54 4.54 0 00.62-.46.69.69 0 01.38-.21.43.43 0 01.32.2l.52.84a5.48 5.48 0 01-1.93 1.35 6 6 0 01-2.43.46zm7.76-11.06v.38a13.68 13.68 0 00.52 3.94 8 8 0 001.48 2.85 6.05 6.05 0 002.3 1.73 7.63 7.63 0 003 .58 9.1 9.1 0 004.45-1.07 9.46 9.46 0 001.19-.74 1.39 1.39 0 01.64-.33.45.45 0 01.4.2l.52.64a5.22 5.22 0 01-1.2 1.12 8.29 8.29 0 01-1.76.89 11.72 11.72 0 01-2.08.59 11.17 11.17 0 01-2.23.22 9.35 9.35 0 01-3.72-.71 7.81 7.81 0 01-2.88-2.07 9.41 9.41 0 01-1.85-3.33 14.43 14.43 0 01-.65-4.51 12.53 12.53 0 01.61-4 9.34 9.34 0 011.76-3.12 8.21 8.21 0 012.82-2.05 9.35 9.35 0 013.79-.74 8.41 8.41 0 013.12.58 7.05 7.05 0 012.5 1.69 7.8 7.8 0 011.67 2.73 10.44 10.44 0 01.61 3.72 1 1 0 01-.12.6.46.46 0 01-.4.16zm13.3-1.22a8.6 8.6 0 00-.45-2.87 6.13 6.13 0 00-1.27-2.15 5.59 5.59 0 00-1.95-1.35 6.46 6.46 0 00-2.49-.47 7.54 7.54 0 00-2.76.48 6.13 6.13 0 00-2.08 1.38 7 7 0 00-1.43 2.16 10.05 10.05 0 00-.72 2.82zm19.14-5.28a1 1 0 01-.19.17.37.37 0 01-.25.07 1 1 0 01-.54-.27 6.78 6.78 0 00-.92-.59 7.88 7.88 0 00-1.45-.59 7.17 7.17 0 00-2.11-.27 7.38 7.38 0 00-3.05.61 6.29 6.29 0 00-2.25 1.75 8 8 0 00-1.39 2.76 14.35 14.35 0 000 7.36 8 8 0 001.39 2.73 5.88 5.88 0 002.18 1.69 6.77 6.77 0 002.84.58 7.19 7.19 0 004-1.08 6 6 0 001-.74 1 1 0 01.6-.34.49.49 0 01.4.2l.5.64a5.4 5.4 0 01-1.16 1.12 7.31 7.31 0 01-1.58.9 9.08 9.08 0 01-1.91.59 10.67 10.67 0 01-2.15.21 8.57 8.57 0 01-3.47-.69 7.56 7.56 0 01-2.7-2 9.35 9.35 0 01-1.76-3.21 14.93 14.93 0 010-8.48 9.38 9.38 0 011.76-3.24 8.12 8.12 0 012.83-2.11 9.28 9.28 0 013.83-.75 9 9 0 013.44.62 8.65 8.65 0 012.62 1.68zm6.28.7a11.25 11.25 0 013.15-2.68 8 8 0 014-1 7.57 7.57 0 012.89.52 5.28 5.28 0 012.07 1.5 6.64 6.64 0 011.24 2.36 10.71 10.71 0 01.42 3.12V176h-1.92v-12.68a6.79 6.79 0 00-1.28-4.39 4.7 4.7 0 00-3.9-1.59 7.08 7.08 0 00-3.63 1 10.38 10.38 0 00-3 2.75v15h-1.96v-29.1h1.92zm30.22-3.36v22.44a5.86 5.86 0 01-.3 1.92 4.17 4.17 0 01-.89 1.53 3.85 3.85 0 01-1.48 1 5.35 5.35 0 01-2.09.37 4.77 4.77 0 01-1-.1 3.6 3.6 0 01-.9-.32l.1-1a.31.31 0 01.16-.21.61.61 0 01.27 0l.43.08a3.16 3.16 0 00.66.05 3 3 0 002.4-.88 3.64 3.64 0 00.78-2.5v-22.38zm.82-6.86a1.5 1.5 0 01-.15.67 1.81 1.81 0 01-.4.55 1.73 1.73 0 01-.57.38 1.56 1.56 0 01-.68.14 1.59 1.59 0 01-.68-.14 1.79 1.79 0 01-.56-.38 1.93 1.93 0 01-.42-.5 1.64 1.64 0 01-.14-.67 1.81 1.81 0 01.14-.69 1.9 1.9 0 01.38-.57 2 2 0 01.56-.38 1.76 1.76 0 01.68-.14 1.72 1.72 0 01.68.14 1.9 1.9 0 01.57.38 1.78 1.78 0 01.4.57 1.65 1.65 0 01.19.64zm12.72 6.54a9.65 9.65 0 013.83.73 7.83 7.83 0 012.85 2.07 9 9 0 011.77 3.23 14.94 14.94 0 010 8.45 8.89 8.89 0 01-1.77 3.22 7.58 7.58 0 01-2.85 2.06 10.55 10.55 0 01-7.66 0 7.78 7.78 0 01-2.86-2.06 9.06 9.06 0 01-1.78-3.22 14.94 14.94 0 010-8.45 9.19 9.19 0 011.78-3.23 8 8 0 012.86-2.07 9.69 9.69 0 013.83-.73zm0 19a7.31 7.31 0 003.11-.61 5.77 5.77 0 002.22-1.75 7.5 7.5 0 001.33-2.75 15 15 0 000-7.21 7.68 7.68 0 00-1.33-2.77 6 6 0 00-2.22-1.77 8.11 8.11 0 00-6.22 0 6.18 6.18 0 00-2.22 1.77 8 8 0 00-1.34 2.77 14.67 14.67 0 000 7.21 7.84 7.84 0 001.34 2.75 5.93 5.93 0 002.22 1.75 7.38 7.38 0 003.11.59zm15.24-15.22a10.21 10.21 0 013-2.77 7.94 7.94 0 014-1 7.56 7.56 0 013.22.66 6.66 6.66 0 012.41 1.9 8.8 8.8 0 011.51 3.05 14.8 14.8 0 01.52 4.11 15.54 15.54 0 01-.58 4.41 9.94 9.94 0 01-1.69 3.4 7.54 7.54 0 01-2.71 2.18 8.27 8.27 0 01-3.66.77 7.46 7.46 0 01-3.61-.81 7.34 7.34 0 01-2.57-2.41l-.14 2.46a.49.49 0 01-.54.5h-1.08v-29.1h1.92zm0 12.1a6.79 6.79 0 002.55 2.41 7 7 0 003.13.69 7.05 7.05 0 003.11-.64 5.79 5.79 0 002.22-1.83 8.12 8.12 0 001.33-2.89 15.36 15.36 0 00.44-3.82q0-4.11-1.64-6.2a5.54 5.54 0 00-4.6-2.08 6.67 6.67 0 00-3.7 1 10.36 10.36 0 00-2.84 2.84zm29.94-13.1a.5.5 0 01-.46.28 1 1 0 01-.56-.25 10.45 10.45 0 00-.91-.56 8.1 8.1 0 00-1.41-.56 7.48 7.48 0 00-2-.25 6.12 6.12 0 00-2 .31 5.14 5.14 0 00-1.52.83 3.73 3.73 0 00-1 1.21 3.22 3.22 0 00-.34 1.45 2.46 2.46 0 00.48 1.56 4.07 4.07 0 001.25 1.06 8.49 8.49 0 001.77.76l2 .64c.69.22 1.36.45 2 .71a7.48 7.48 0 011.77 1 4.73 4.73 0 011.25 1.42 4.05 4.05 0 01.48 2 6.21 6.21 0 01-.46 2.42 5.39 5.39 0 01-1.35 1.94 6.4 6.4 0 01-2.19 1.3 8.59 8.59 0 01-3 .48 8.86 8.86 0 01-3.62-.67 10.05 10.05 0 01-2.72-1.75l.44-.68a.88.88 0 01.23-.24.7.7 0 01.35-.08 1.1 1.1 0 01.63.32 6.43 6.43 0 001 .69 7.89 7.89 0 001.53.69 6.7 6.7 0 002.25.32 6.31 6.31 0 002.22-.35 4.6 4.6 0 001.6-1 3.92 3.92 0 001-1.41 4.49 4.49 0 00.33-1.71 2.76 2.76 0 00-.48-1.66 4.16 4.16 0 00-1.26-1.12 9.63 9.63 0 00-1.66-.7l-2-.64c-.69-.21-1.37-.44-2-.7a7.15 7.15 0 01-1.77-1 4.48 4.48 0 01-1.26-1.41 4.06 4.06 0 01-.48-2.07 4.74 4.74 0 01.46-2 5.29 5.29 0 011.31-1.72 6.71 6.71 0 012.07-1.18 8.12 8.12 0 012.74-.44 9.47 9.47 0 013.23.52 7.64 7.64 0 012.57 1.6zm7.88-9.32a1.5 1.5 0 01-.15.67 2 2 0 01-.39.55 1.79 1.79 0 01-.56.38 1.72 1.72 0 01-1.36 0 1.79 1.79 0 01-.56-.38 1.75 1.75 0 01-.38-.55 1.64 1.64 0 01-.14-.67 1.81 1.81 0 01.14-.69 1.73 1.73 0 01.38-.57 2 2 0 01.56-.38 1.72 1.72 0 011.36 0 2 2 0 01.56.38 1.92 1.92 0 01.39.57 1.65 1.65 0 01.15.69zm-.82 6.86V176h-1.9v-19.9zm11.1 20.22a4.26 4.26 0 01-3.15-1.12 4.69 4.69 0 01-1.13-3.46v-13.6h-2.86a.52.52 0 01-.36-.12.43.43 0 01-.14-.34V157l3.4-.24.48-7.12a.81.81 0 01.16-.32.43.43 0 01.34-.14h.9v7.6h6.28v1.42h-6.28v13.5a4.19 4.19 0 00.21 1.41 2.51 2.51 0 00.58 1 2.25 2.25 0 00.87.56 3.14 3.14 0 001.08.18 3.32 3.32 0 001.24-.21 4.71 4.71 0 00.9-.46 5.26 5.26 0 00.62-.46.69.69 0 01.38-.21.44.44 0 01.32.2l.52.84a5.58 5.58 0 01-1.93 1.35 6 6 0 01-2.43.46zm7.76-11.06v.38a13.34 13.34 0 00.52 3.94 8 8 0 001.48 2.85 6 6 0 002.32 1.73 7.63 7.63 0 003 .58 9.08 9.08 0 002.6-.33 9.36 9.36 0 001.85-.74 9.46 9.46 0 001.19-.74 1.35 1.35 0 01.64-.33.47.47 0 01.4.2l.52.64a5.22 5.22 0 01-1.27 1.12 8.54 8.54 0 01-1.76.89 12 12 0 01-2.08.59 11.17 11.17 0 01-2.23.22 9.35 9.35 0 01-3.72-.71 7.81 7.81 0 01-2.88-2.07 9.26 9.26 0 01-1.85-3.33 14.43 14.43 0 01-.65-4.51 12.25 12.25 0 01.61-4 9.17 9.17 0 011.76-3.12 8.21 8.21 0 012.82-2.05 9.32 9.32 0 013.79-.74 8.41 8.41 0 013.12.58 7.14 7.14 0 012.5 1.69 8 8 0 011.67 2.73 10.44 10.44 0 01.61 3.72 1 1 0 01-.12.6.46.46 0 01-.4.16zm13.28-1.22a8.6 8.6 0 00-.45-2.87 6.13 6.13 0 00-1.27-2.15 5.78 5.78 0 00-2-1.35 6.46 6.46 0 00-2.49-.47 7.46 7.46 0 00-2.76.48 6 6 0 00-2.11 1.38 7 7 0 00-1.43 2.16 10.05 10.05 0 00-.72 2.82z" fill="#565656"/><path fill="url(#a)" d="M69 51v19H43v50H23V51"/><path d="M77 51v49H50v20s14.14.47 27 0c11.47-.42 21-4.41 21-17V51z" fill="url(#b)"/></svg>